<?xml version="1.0" standalone="no"?>
<!DOCTYPE svg PUBLIC "-//W3C//DTD SVG 20010904//EN"
 "http://www.w3.org/TR/2001/REC-SVG-20010904/DTD/svg10.dtd">
<svg version="1.0" xmlns="http://www.w3.org/2000/svg"
 width="880.000000pt" height="880.000000pt" viewBox="0 0 880.000000 880.000000"
 preserveAspectRatio="xMidYMid meet">
<metadata>
Created by potrace 1.14, written by Peter Selinger 2001-2017
</metadata>
<g transform="translate(0.000000,880.000000) scale(0.100000,-0.100000)"
fill="#000000" stroke="none">
<path d="M5376 7092 c-3 -2 -18 -6 -33 -7 -45 -5 -282 -71 -295 -83 -7 -5 -33
-15 -58 -22 -25 -7 -79 -28 -120 -48 -41 -19 -78 -34 -82 -34 -5 1 -8 -5 -8
-14 0 -8 -4 -13 -9 -10 -12 8 -42 -4 -37 -13 3 -4 -4 -7 -14 -8 -11 -1 -40
-16 -64 -32 -25 -17 -49 -31 -54 -31 -5 0 -21 -11 -36 -25 -14 -13 -41 -31
-59 -40 -69 -33 -277 -202 -412 -335 -49 -49 -94 -95 -100 -103 -83 -117 -145
-229 -145 -262 0 -11 -5 -26 -10 -31 -18 -18 -29 -122 -31 -286 0 -120 -4
-158 -13 -155 -7 3 -13 -4 -13 -15 -2 -27 -9 -32 -30 -23 -30 13 -43 14 -37 2
5 -9 4 -9 -6 0 -7 6 -19 9 -26 6 -8 -3 -14 1 -14 8 0 11 -3 11 -10 -1 -6 -10
-10 -11 -10 -3 0 8 -11 11 -30 9 -16 -2 -32 -1 -35 2 -12 12 -49 12 -57 0 -6
-10 -8 -9 -8 2 0 9 -10 16 -26 18 -18 1 -23 -2 -18 -11 6 -8 3 -8 -9 1 -9 8
-20 11 -26 8 -5 -3 -12 0 -14 6 -4 10 -6 9 -6 -1 -1 -10 -4 -11 -15 -2 -8 6
-38 13 -68 15 -30 1 -59 5 -64 9 -6 3 -34 7 -62 8 -29 2 -52 6 -52 10 0 4 -16
6 -37 5 -20 -1 -41 3 -47 9 -6 6 -28 10 -48 10 -28 -1 -38 3 -38 15 0 9 -3 11
-8 5 -9 -13 -32 -18 -32 -7 0 5 -6 9 -12 9 -23 1 -43 8 -50 18 -5 6 -8 4 -8
-5 0 -12 -2 -12 -9 -2 -4 7 -22 14 -39 16 -16 1 -37 8 -46 15 -8 7 -20 10 -26
6 -5 -3 -10 -2 -10 2 0 5 -12 10 -27 11 -15 1 -29 6 -32 11 -5 6 -23 13 -71
26 -29 7 -50 18 -50 25 0 5 -7 6 -17 3 -10 -4 -14 -2 -10 4 4 6 -4 11 -19 11
-15 0 -29 4 -33 10 -3 6 -13 12 -21 14 -8 2 -21 9 -28 16 -8 7 -18 10 -23 7
-5 -4 -9 -2 -9 2 0 9 -80 48 -92 45 -5 -1 -8 5 -8 14 0 10 -6 14 -14 11 -8 -3
-22 3 -31 13 -10 11 -21 17 -26 15 -4 -3 -14 3 -21 12 -7 10 -20 19 -28 21 -8
2 -16 8 -18 13 -2 5 -10 9 -18 9 -8 0 -17 7 -20 15 -4 8 -12 15 -20 15 -8 0
-14 8 -14 18 0 14 -2 15 -10 2 -9 -13 -14 -7 -11 12 0 5 -3 7 -8 5 -5 -1 -23
10 -40 26 -17 15 -33 27 -37 27 -3 0 -24 18 -46 40 -23 22 -45 40 -50 40 -5 0
-6 5 -3 10 3 6 1 10 -4 10 -6 0 -13 0 -16 0 -10 0 -71 65 -68 73 2 4 0 7 -6 7
-12 0 -151 144 -151 156 0 3 -13 16 -28 29 -16 13 -41 44 -57 69 -16 25 -35
46 -42 46 -7 0 -13 6 -13 13 0 15 -55 77 -69 77 -5 0 -17 7 -25 16 -9 8 -16
10 -16 4 0 -7 -6 -8 -19 0 -13 6 -22 7 -26 0 -3 -5 -12 -7 -19 -4 -8 3 -30 -2
-50 -10 -26 -11 -36 -12 -36 -3 -1 8 -5 6 -13 -3 -7 -9 -19 -15 -27 -15 -14 0
-25 -6 -54 -32 -8 -7 -16 -10 -19 -7 -3 3 -8 -4 -12 -15 -3 -12 -11 -21 -16
-21 -6 0 -8 -4 -5 -9 3 -5 -1 -14 -9 -21 -8 -7 -12 -16 -9 -21 3 -5 1 -9 -4
-9 -14 0 -55 -107 -46 -121 4 -7 3 -9 -3 -6 -12 8 -26 -20 -17 -34 3 -5 1 -9
-5 -9 -6 0 -8 -7 -5 -15 4 -8 1 -15 -5 -15 -6 0 -11 -13 -11 -30 0 -16 -4 -30
-9 -30 -5 0 -8 -12 -6 -26 1 -14 -3 -31 -9 -37 -14 -15 -17 -47 -5 -47 5 0 3
-12 -5 -27 -7 -16 -13 -47 -12 -71 0 -23 -3 -42 -9 -42 -6 0 -11 -32 -12 -73
0 -39 -4 -85 -8 -102 -4 -16 -7 -127 -7 -245 0 -227 3 -290 12 -290 3 0 5 -26
6 -58 0 -32 4 -67 8 -77 5 -11 10 -36 11 -55 5 -55 12 -94 18 -110 4 -8 9 -28
11 -43 3 -16 9 -34 14 -40 4 -7 7 -22 6 -34 0 -13 3 -23 7 -23 5 0 9 -9 9 -20
0 -11 4 -28 9 -38 12 -23 40 -93 46 -112 7 -26 52 -108 65 -117 13 -11 13 -12
0 -13 -11 0 -12 -3 -3 -8 12 -8 63 -79 63 -88 0 -3 7 -12 16 -21 14 -14 12
-17 -18 -32 -18 -8 -35 -19 -36 -23 -2 -4 -8 -8 -14 -8 -5 0 -16 -7 -24 -15
-9 -8 -12 -15 -8 -15 4 0 -4 -9 -18 -19 -16 -13 -24 -29 -23 -48 1 -35 15 -95
25 -108 4 -5 6 -20 5 -32 -1 -13 2 -23 7 -23 4 0 8 -8 8 -18 0 -10 6 -24 12
-31 11 -11 10 -13 0 -7 -7 4 -4 -8 8 -29 11 -19 20 -44 20 -55 0 -11 4 -20 8
-20 4 0 8 -10 9 -22 1 -11 6 -24 10 -27 4 -3 9 -15 10 -27 1 -11 8 -34 14 -50
7 -16 13 -32 13 -36 1 -3 4 -10 9 -14 4 -4 7 -18 7 -31 0 -14 4 -21 10 -18 5
3 10 -3 10 -14 0 -11 5 -23 10 -26 6 -3 10 -12 10 -20 0 -7 16 -41 35 -74 19
-34 29 -59 22 -55 -7 4 -4 -2 5 -13 10 -11 18 -25 18 -31 0 -7 5 -12 10 -12 6
0 10 -6 10 -14 0 -7 7 -19 15 -26 9 -7 13 -15 10 -18 -2 -3 5 -13 17 -24 12
-10 19 -21 16 -24 -3 -3 4 -17 17 -31 45 -50 55 -63 49 -63 -3 0 13 -18 37
-39 34 -32 43 -48 46 -83 2 -24 9 -45 14 -46 5 -2 7 -8 4 -12 -8 -12 52 -140
65 -140 6 0 9 -4 5 -9 -3 -5 -1 -12 5 -16 6 -4 8 -11 5 -16 -4 -5 1 -9 9 -9 8
0 17 -9 21 -19 3 -11 13 -22 21 -25 8 -3 13 -10 9 -15 -3 -5 4 -12 15 -16 11
-3 20 -12 20 -20 0 -8 9 -17 20 -20 11 -4 18 -11 15 -16 -4 -5 0 -9 9 -9 8 0
27 -12 43 -27 15 -16 41 -35 56 -43 16 -8 39 -24 52 -36 13 -12 26 -20 29 -17
3 3 13 -2 22 -12 16 -16 15 -18 -12 -41 -16 -13 -33 -23 -37 -24 -5 0 -5 -5
-2 -10 3 -6 -1 -10 -9 -10 -16 0 -166 -146 -166 -161 0 -5 -6 -8 -13 -6 -6 1
-11 -3 -10 -10 2 -6 -11 -24 -27 -40 -17 -15 -30 -36 -30 -45 0 -10 -4 -18 -9
-18 -8 0 -52 -64 -57 -82 -1 -5 -3 -11 -4 -15 -1 -5 -2 -11 -1 -16 0 -4 -3 -7
-7 -7 -5 0 -15 -19 -22 -42 -17 -54 -18 -57 -25 -92 -3 -16 -8 -33 -11 -38 -3
-4 0 -8 7 -8 7 0 8 -4 2 -12 -5 -7 -8 -29 -7 -48 2 -19 4 -52 5 -72 1 -21 6
-38 11 -38 5 0 6 -4 3 -10 -3 -5 4 -27 15 -50 11 -22 17 -40 13 -40 -5 0 -3
-4 4 -8 6 -4 13 -14 15 -21 4 -20 31 -49 41 -44 4 3 6 1 5 -4 -5 -18 14 -51
37 -63 14 -7 25 -19 25 -26 0 -12 28 -29 44 -25 5 1 5 -6 2 -16 -4 -9 -4 -14
0 -11 3 4 21 -4 39 -17 17 -14 37 -25 42 -25 6 0 14 -7 17 -16 3 -8 10 -13 16
-9 5 3 18 -3 28 -13 10 -10 24 -16 30 -14 7 2 12 -1 12 -7 0 -6 6 -11 14 -11
7 0 19 -6 25 -14 7 -8 21 -12 33 -8 13 3 19 1 15 -5 -4 -6 5 -13 21 -16 61
-12 87 -19 92 -25 10 -13 296 -26 315 -14 6 4 18 8 27 9 32 5 98 45 91 56 -3
5 -1 7 4 4 15 -10 46 30 41 51 -4 15 -1 18 13 15 17 -5 25 10 20 39 0 4 7 4
17 1 15 -6 15 -5 3 10 -12 15 -12 17 2 11 11 -4 21 4 31 24 8 16 14 31 13 33
-1 2 3 -1 8 -7 6 -6 18 -10 27 -8 10 1 20 -6 23 -17 4 -10 15 -19 26 -19 11 0
18 -4 15 -9 -4 -5 2 -8 11 -6 10 1 24 -2 31 -8 8 -6 12 -6 12 2 0 9 5 9 21 1
11 -7 27 -9 35 -6 8 3 14 0 14 -7 0 -8 3 -7 9 2 8 13 12 13 27 0 11 -9 15 -9
10 -1 -5 8 0 12 13 12 12 0 21 -5 21 -10 0 -7 6 -7 19 -1 10 6 20 8 22 6 3 -2
27 -7 55 -10 28 -3 61 -8 75 -12 13 -3 161 -8 329 -10 274 -4 412 1 590 23 19
3 76 9 125 14 121 12 359 48 409 61 23 7 52 13 66 15 27 4 155 34 260 61 36 9
70 18 75 20 268 69 671 237 862 360 45 29 86 53 91 53 12 0 210 156 277 218
118 110 259 270 342 391 18 25 37 52 43 59 6 6 8 12 4 12 -3 0 5 15 20 34 14
19 26 38 26 42 0 3 20 40 45 81 25 40 45 78 45 83 0 5 21 50 46 100 44 87 114
284 114 321 0 10 5 21 10 24 6 4 8 11 5 16 -4 5 -2 9 2 9 8 0 33 111 33 148 0
25 -168 180 -210 194 -9 3 -6 31 9 110 18 96 26 161 35 316 5 76 -11 294 -27
378 l-13 72 79 62 c92 74 121 113 105 144 -6 11 -46 54 -88 96 -43 42 -88 97
-100 121 -23 45 -52 148 -44 160 2 4 6 32 9 64 2 32 10 64 16 71 6 8 8 14 4
14 -4 0 -2 6 4 13 6 8 8 17 4 21 -4 4 -3 10 2 14 6 4 18 23 29 44 10 20 36 55
57 77 22 22 39 48 39 57 0 19 70 102 220 257 57 60 111 118 119 130 8 12 37
44 63 71 27 27 85 90 129 140 45 50 118 132 163 181 46 50 103 113 128 140 25
28 68 75 96 105 28 30 49 56 48 58 -2 1 -131 -29 -287 -69 -156 -39 -294 -73
-306 -75 -12 -2 -34 -9 -49 -14 -15 -6 -28 -9 -30 -7 -8 8 255 167 275 167 22
0 276 158 268 167 -3 2 -54 -9 -115 -26 -61 -16 -113 -27 -116 -24 -3 3 -12 0
-21 -7 -8 -7 -22 -10 -30 -6 -8 3 -15 1 -15 -5 0 -6 -8 -9 -17 -8 -10 1 -31
-3 -47 -10 -16 -6 -37 -13 -47 -14 -10 -2 -22 -6 -25 -10 -4 -4 -16 -7 -26 -7
-10 0 -18 -4 -18 -10 0 -5 -6 -7 -14 -4 -8 3 -17 0 -21 -5 -3 -6 -10 -9 -14
-7 -4 3 -41 -4 -82 -15 -40 -11 -78 -21 -84 -23 -5 -1 -26 -7 -45 -13 -19 -6
-84 -21 -145 -32 -60 -12 -130 -28 -155 -36 -25 -8 -81 -22 -124 -30 -66 -14
-84 -14 -105 -4 -35 18 -142 91 -216 148 -106 82 -118 90 -220 148 -113 65
-281 144 -289 136 -3 -3 -12 0 -21 7 -8 7 -15 9 -15 5 0 -4 -6 -2 -14 4 -33
28 -361 82 -380 63z m-1562 -1568 c4 -9 4 -19 1 -22 -3 -3 -5 0 -5 7 0 7 -4
10 -8 7 -5 -3 -9 1 -9 9 0 20 13 19 21 -1z"/>
</g>
</svg>
